<svg xmlns="http://www.w3.org/2000/svg" viewBox="0 0 400 300" width="0" height="0" class="illustration styles_illustrationTablet__1DWOa"><g id="_389_mountain_outline" data-name="#389_mountain_outline"><path d="M293.85,150a93.51,93.51,0,0,1-14.93,50.79c-.13.22-.28.45-.43.67h0A89.1,89.1,0,0,1,273,209a93.86,93.86,0,0,1-151.39-7.34q-2.28-3.44-4.23-7.06A93.85,93.85,0,1,1,293.85,150Z" fill="#fff"></path><path d="M200,244.85a94.88,94.88,0,0,1-79.21-42.68c-1.54-2.32-3-4.72-4.28-7.14a94.84,94.84,0,1,1,175.7-22.75,93.66,93.66,0,0,1-12.45,29.05c-.12.21-.28.46-.44.69l0,0a90.66,90.66,0,0,1-5.49,7.52,95.31,95.31,0,0,1-15.89,15.53A93.88,93.88,0,0,1,200,244.85Zm0-187.7a92.87,92.87,0,0,0-81.73,136.93c1.27,2.37,2.68,4.72,4.18,7a92.83,92.83,0,0,0,149.78,7.26,86.43,86.43,0,0,0,5.41-7.41l.06-.07c.12-.19.25-.38.36-.57a91.86,91.86,0,0,0,12.21-28.47A92.92,92.92,0,0,0,200,57.15Zm78.49,144.31h0Z" fill="#093f68"></path><path d="M154,123.79H126c-3.35,0-6.08-2.21-6.08-4.94a5,5,0,0,1,3.43-4.45c.73-3.47,4.55-6.11,9-6.11a10.84,10.84,0,0,1,4.59,1,7.53,7.53,0,0,1,6.37-3.15c3.4,0,6.29,1.94,7,4.54a7.07,7.07,0,0,1,5.8,3.55,5.1,5.1,0,0,1,4,4.63C160.09,121.58,157.37,123.79,154,123.79Zm-21.64-13.5c-3.74,0-6.87,2.18-7.14,5a1,1,0,0,1-.72.87,3.17,3.17,0,0,0-2.6,2.73c0,1.62,1.83,2.94,4.08,2.94h28c2.25,0,4.08-1.32,4.08-2.94,0-1.28-1.19-2.43-2.9-2.81a1,1,0,0,1-.72-.62c-.63-1.64-2.67-2.79-5-2.79a1,1,0,0,1-1-.92c-.15-2-2.41-3.58-5.15-3.58-2.34,0-4.4,1.17-5,2.85a1,1,0,0,1-.61.6,1,1,0,0,1-.85-.08A8.67,8.67,0,0,0,132.37,110.29Z" fill="#dfeaef"></path><path d="M133.35,115.47a1,1,0,0,1-.76-1.65c4.89-5.69,10.17-1.79,10.22-1.75a1,1,0,0,1-1.2,1.6c-.39-.29-3.92-2.72-7.5,1.45A1,1,0,0,1,133.35,115.47Z" fill="#dfeaef"></path><path d="M278.56,199.38c0,.68,0,1.37-.07,2.08h0A89.1,89.1,0,0,1,273,209c-3.79-.59-9.46-3.67-15.95-8-19.16-12.77-45.43-36.37-51.17-38.81a91,91,0,0,1-16.57-10c-12.3-9.21-25.34-23.32-20.4-38,7.51-22.29,19.55-50.41,20-51.57h0v0S198,77,203.41,86.43a180.25,180.25,0,0,1,11.86,25.18,41.57,41.57,0,0,1,2.11,7.5c1.13,7.44,8-22.09,8-22.09s1.05,1.36,2.69,3.55c2.83,3.76,7.43,10,11.43,15.84,6.31,9.24,18,18.7,20.06,33.35s3.16,10.82,8.12,20.74c1.87,3.73,4.24,7.52,6.29,11.63C276.5,187.23,278.57,192.82,278.56,199.38Z" fill="#093f68"></path><path d="M273,210h-.15c-3.62-.56-9-3.23-16.35-8.15-10.1-6.73-22.33-16.58-32.15-24.5-8.73-7-16.26-13.12-18.86-14.22a91.89,91.89,0,0,1-16.78-10.14c-23.57-17.65-23.12-32.08-20.75-39.11,6.71-19.91,17-44.37,20-51.39l.11-.25a.2.2,0,0,1,0-.08,1,1,0,0,1,.63-.53,1,1,0,0,1,1.12.43c.09.14,9.09,14.54,14.45,23.92a181.57,181.57,0,0,1,11.93,25.34,45.64,45.64,0,0,1,2,7c1.48-3.29,4.09-12.75,6.12-21.5a1,1,0,0,1,.76-.75,1,1,0,0,1,1,.37s1.06,1.36,2.7,3.56c2.48,3.3,7.27,9.74,11.46,15.88,1.68,2.46,3.76,5,6,7.59,6,7.14,12.73,15.22,14.25,26.18,1.35,9.73,2.25,11,4.21,14a50.18,50.18,0,0,1,3.81,6.47c.9,1.78,1.89,3.56,2.95,5.44s2.27,4,3.34,6.19c2.21,4.4,4.74,10.38,4.73,17.7h0c0,.75,0,1.45-.07,2.15a1.06,1.06,0,0,1-.21.54,90.66,90.66,0,0,1-5.49,7.52A1,1,0,0,1,273,210ZM189.15,64.7c-3.59,8.49-13,31.14-19.28,49.77-5.12,15.19,10.37,29.62,20,36.87a88.91,88.91,0,0,0,16.36,9.9c2.85,1.21,10.13,7.08,19.34,14.5,9.79,7.89,22,17.72,32,24.4,6.65,4.43,11.69,7,15,7.73,1.75-2.19,3.39-4.45,4.9-6.74,0-.57.05-1.14.05-1.75h0c0-6.9-2.41-12.6-4.51-16.8-1.05-2.11-2.2-4.14-3.3-6.11s-2.08-3.7-3-5.52a50.59,50.59,0,0,0-3.68-6.25c-2.08-3.07-3.13-4.61-4.54-14.8-1.44-10.39-8-18.25-13.81-25.18-2.23-2.67-4.35-5.2-6.09-7.75-4.16-6.1-8.93-12.51-11.4-15.8l-1.4-1.86c-5.23,22.11-7.1,22-7.93,22-1.21,0-1.44-1.55-1.52-2a41,41,0,0,0-2.06-7.31,178.61,178.61,0,0,0-11.79-25C198.27,79.44,191.66,68.74,189.15,64.7Zm89.34,136.76h0Z" fill="#093f68"></path><path d="M278.92,200v.76c-.13.22-.28.45-.43.67h0A89.1,89.1,0,0,1,273,209a94.08,94.08,0,0,1-15.72,15.37c-29.82,3.92-83.37,4-114.24.26-8.37-6.39-19.86-21.22-25.66-30,.48-3.52,17.59-48.68,25.39-66.24l1.32-2.92c1.17-2.55,2.62-5.31,5.24-6.29,4-1.5,6,.73,8.16-3.13s3-8.57,4.75-12.52c6.62-15,15.22-29.18,26.71-40.88h0c-.07.71-1.34,12-1.34,14.84s1.58,6.54,5.64,12.4,1.78,55.51,1.78,55.51,11.4-19.49,20.22-33.71c5.15-8.27,9.42-14.76,10.08-14.59,1.29.32,2.14,1.64,2.69,3.55,2,7,.11,22.13,2.29,25.61,2.53,4,7.17,6.62,9.07,11,2.15,4.95.2,10.59-1.16,15.8s-1.77,11.64,2.34,15.13c2.27,1.93,5.38,2.44,8.26,3.23,9.75,2.69,16.2,8,21.47,14.87a103.06,103.06,0,0,1,8.25,13.17Z" fill="#68e1fd"></path><path d="M199.1,228.34c-20.48,0-41-.91-56.17-2.76a1,1,0,0,1-.49-.2c-8.72-6.66-20.51-22.1-25.89-30.27a1,1,0,0,1-.15-.69c.51-3.74,17.58-48.75,25.47-66.51L143,125.4l.19-.41c1.24-2.72,2.82-5.7,5.8-6.82a11.84,11.84,0,0,1,4.11-.69c1.69,0,2.46-.07,3.53-2a39,39,0,0,0,2.76-7c.59-1.82,1.19-3.7,1.94-5.4,7.43-16.83,16.23-30.3,26.92-41.18a1,1,0,0,1,1.14-.21,1,1,0,0,1,.57,1l-.08.83c-.83,7.64-1.25,12.32-1.25,13.91,0,2.77,1.63,6.3,5.46,11.83,3.57,5.17,2.6,39.67,2.12,52.12,3.69-6.25,11.69-19.77,18.21-30.28,9.61-15.44,10.2-15.28,11.18-15,1.55.39,2.7,1.82,3.4,4.24,1,3.58,1.08,8.91,1.13,14.07,0,4.8.08,9.75,1.05,11.29a26,26,0,0,0,4,4.6c2,1.92,4,3.91,5.13,6.53,2.05,4.74.68,9.83-.66,14.76-.15.57-.31,1.13-.45,1.69-1.21,4.63-1.84,10.84,2,14.12,1.7,1.45,4,2,6.36,2.63l1.51.4c9,2.47,16,7.3,22,15.22a105.06,105.06,0,0,1,8.34,13.3c.11.2.23.43.36.65a1,1,0,0,1,.12.48v.76a1,1,0,0,1-.14.51c-.14.24-.3.49-.46.72l0,0a90.66,90.66,0,0,1-5.49,7.52,95.31,95.31,0,0,1-15.89,15.53.93.93,0,0,1-.48.2C242.13,227.33,220.62,228.34,199.1,228.34Zm-55.66-4.71c31,3.72,83.78,3.6,113.45-.26a92.89,92.89,0,0,0,15.34-15,86.43,86.43,0,0,0,5.41-7.41l.06-.07.22-.34v-.22l-.23-.42a104.25,104.25,0,0,0-8.17-13.05c-5.86-7.66-12.32-12.14-20.95-14.52l-1.48-.38c-2.51-.64-5.1-1.3-7.16-3-4.64-3.94-4-11-2.66-16.14.15-.57.31-1.14.46-1.72,1.24-4.59,2.53-9.34.75-13.43-1-2.27-2.78-4-4.69-5.91a27.72,27.72,0,0,1-4.31-5c-1.26-2-1.3-6.79-1.35-12.33,0-4.79-.1-10.22-1-13.53a4.42,4.42,0,0,0-1.61-2.72c-.71.75-2.85,3.57-9.35,14-8.71,14-20.09,33.49-20.21,33.69a1,1,0,0,1-1.14.45,1,1,0,0,1-.72-1c.91-19.82,1.23-50.8-1.6-54.89-4.13-6-5.82-9.72-5.82-13,0-2,.63-8.25,1-12-9.62,10.34-17.65,23-24.49,38.48a52.64,52.64,0,0,0-1.87,5.21,41.32,41.32,0,0,1-2.93,7.4c-1.62,2.9-3.37,3-5.21,3a9.78,9.78,0,0,0-3.47.57c-2.27.84-3.61,3.42-4.68,5.77l-.19.41c-.37.83-.75,1.66-1.13,2.5-8,18.08-24,60.44-25.24,65.62C123.81,202.42,135.05,217.12,143.44,223.63ZM225.11,98h0Z" fill="#093f68"></path><path d="M172.64,185.81a1,1,0,0,1-.3,0,1,1,0,0,1-.65-1.26,140.41,140.41,0,0,1,9.47-22,104.1,104.1,0,0,1,13.16-17.9,1,1,0,1,1,1.45,1.37,102.78,102.78,0,0,0-12.86,17.49,136.83,136.83,0,0,0-9.31,21.62A1,1,0,0,1,172.64,185.81Z" fill="#093f68"></path><path d="M137.65,166.07h-.11a1,1,0,0,1-.88-1.1c1.52-14.22,10.35-29.05,10.73-29.67a1,1,0,1,1,1.71,1c-.09.14-9,15.08-10.46,28.86A1,1,0,0,1,137.65,166.07Z" fill="#093f68"></path><path d="M167.85,109.74a1,1,0,0,1-1-.8c-1.11-5.62,0-8.85,0-9a1,1,0,0,1,1.88.66s-.95,2.92,0,7.93a1,1,0,0,1-.79,1.17A.62.62,0,0,1,167.85,109.74Z" fill="#093f68"></path><path d="M231.13,168.91a1,1,0,0,1-.95-.68,25.42,25.42,0,0,1,0-9.31,1,1,0,0,1,2,.39,24.43,24.43,0,0,0,0,8.28,1,1,0,0,1-.63,1.27A1.19,1.19,0,0,1,231.13,168.91Z" fill="#093f68"></path><path d="M190.9,202.72a1,1,0,0,1-.56-.17,1,1,0,0,1-.27-1.39c.07-.1,7-10.41,8.46-16.58a1,1,0,1,1,1.94.47c-1.57,6.52-8.45,16.79-8.74,17.23A1,1,0,0,1,190.9,202.72Z" fill="#093f68"></path><path d="M291.24,172a93,93,0,0,1-12.32,28.75c-.13.22-.28.45-.43.67h0A89.1,89.1,0,0,1,273,209a93.86,93.86,0,0,1-151.39-7.34q-2.28-3.44-4.23-7.06a14.32,14.32,0,0,1,13-3.19,14.32,14.32,0,0,1,10,10.07c4-3.86,12.36-4.83,17.5-6.64,5.53-2,13-1.85,16,4.21,5.39-4.12,13.16-3.82,18.95-.44a15.65,15.65,0,0,1,7.26,8.67,22.52,22.52,0,0,1,21.6,7c3.53-3.88,7.87-7.21,12.95-8.49s10.94-.23,14.55,3.56a11.44,11.44,0,0,1,7.79-8.35,10.45,10.45,0,0,1,5.94-.22,40.54,40.54,0,0,1,7.31-14.54,40.08,40.08,0,0,1,3.63-4.08,40.6,40.6,0,0,1,13.51-8.87A29.36,29.36,0,0,1,291.24,172Z" fill="#70cc40"></path><path d="M200,244.85a94.88,94.88,0,0,1-79.21-42.68c-1.54-2.32-3-4.72-4.28-7.14a1,1,0,0,1,.21-1.21,15,15,0,0,1,24.21,5.9c3.07-2.23,7.56-3.39,11.57-4.42,1.87-.47,3.63-.93,5.1-1.44,6-2.1,13.22-1.69,16.68,3.7,5.39-3.5,12.92-3.48,19.13.15a16.8,16.8,0,0,1,7.41,8.37,23.76,23.76,0,0,1,21,6.7c4-4.19,8.28-6.88,12.7-8a16.51,16.51,0,0,1,14.27,2.7,12.64,12.64,0,0,1,8-7.47,11.73,11.73,0,0,1,5.54-.45,42.62,42.62,0,0,1,24.79-27.24,30.32,30.32,0,0,1,3.93-1.26,1,1,0,0,1,1.2,1.2,93.61,93.61,0,0,1-12.45,29.06c-.12.21-.28.46-.44.69l0,0a90.66,90.66,0,0,1-5.49,7.52,95.31,95.31,0,0,1-15.89,15.53A93.88,93.88,0,0,1,200,244.85Zm-81.34-50c1.16,2.12,2.44,4.22,3.79,6.27a92.83,92.83,0,0,0,149.78,7.26,86.43,86.43,0,0,0,5.41-7.41l.06-.07c.12-.19.25-.38.36-.57a92.1,92.1,0,0,0,11.79-26.81q-1,.3-2,.72a39.94,39.94,0,0,0-13.17,8.65,41.75,41.75,0,0,0-3.54,4A39.65,39.65,0,0,0,264,201a1.06,1.06,0,0,1-.47.61,1,1,0,0,1-.76.09,9.5,9.5,0,0,0-5.37.21,10.39,10.39,0,0,0-7.12,7.59,1,1,0,0,1-.7.77,1,1,0,0,1-1-.27c-3.13-3.29-8.46-4.58-13.57-3.28-4.31,1.08-8.5,3.84-12.46,8.19a1.19,1.19,0,0,1-.75.33,1,1,0,0,1-.75-.34,21.56,21.56,0,0,0-20.62-6.7,1,1,0,0,1-1.17-.67,14.7,14.7,0,0,0-6.81-8.1c-5.89-3.44-13.06-3.29-17.84.36a1,1,0,0,1-.83.18,1,1,0,0,1-.67-.52c-1.9-3.78-7.21-6.4-14.81-3.72-1.55.55-3.35,1-5.26,1.5-4.34,1.11-9.26,2.38-11.87,4.92a1,1,0,0,1-1.67-.47,13.38,13.38,0,0,0-9.28-9.35,13.28,13.28,0,0,0-11.52,2.46Z" fill="#093f68"></path><path d="M210.17,223.72a1,1,0,0,1-.95-.67,13.94,13.94,0,0,0-7.31-8c-2.73-1.23-6.38-1.28-8.08,1a1,1,0,0,1-.87.4,1,1,0,0,1-.81-.51,7.6,7.6,0,0,0-7-3.64,11,11,0,0,0-7.47,3.75,1,1,0,0,1-1.47-1.35,13.06,13.06,0,0,1,8.86-4.4,9.83,9.83,0,0,1,8,3.56c2.5-2.11,6.52-2,9.56-.62a16,16,0,0,1,8.38,9.12,1,1,0,0,1-.61,1.28A1.26,1.26,0,0,1,210.17,223.72Z" fill="#093f68"></path><path d="M238.47,226.88a1.54,1.54,0,0,1-.59-.11,1.79,1.79,0,0,1-1.07-1.23,2.85,2.85,0,0,1,.29-1.84,36.11,36.11,0,0,1,6.82-10.84,18.71,18.71,0,0,1,11.48-6,8.67,8.67,0,0,1,4.68.65,1,1,0,1,1-.87,1.8,6.83,6.83,0,0,0-3.61-.46,16.76,16.76,0,0,0-10.24,5.37,34.25,34.25,0,0,0-6.43,10.26l-.12.31a1,1,0,0,1,.46,1.84A1.52,1.52,0,0,1,238.47,226.88Z" fill="#093f68"></path><path d="M149.59,216.36a1,1,0,0,1-.9-.56c-.37-.76-.68-1.54-1-2.29s-.6-1.53-.95-2.24a12.59,12.59,0,0,0-16-6,1,1,0,0,1-.75-1.86,14.58,14.58,0,0,1,18.52,7c.4.8.71,1.62,1,2.41s.57,1.46.91,2.14a1,1,0,0,1-.9,1.44Z" fill="#093f68"></path><path d="M262.37,101.29h-23c-2.85,0-5.17-1.9-5.17-4.23a4.36,4.36,0,0,1,3.32-4,6,6,0,0,1,4.74-2.92c.66-2.16,3.06-3.74,5.88-3.74a6.33,6.33,0,0,1,5.3,2.53,9.1,9.1,0,0,1,3.7-.76c3.78,0,6.91,2.13,7.56,5.07a4.23,4.23,0,0,1,2.84,3.78C267.54,99.39,265.22,101.29,262.37,101.29ZM248.14,88.44c-2.12,0-3.93,1.24-4,2.77a1,1,0,0,1-1,.92,4.08,4.08,0,0,0-3.92,2.17,1,1,0,0,1-.72.62c-1.33.29-2.25,1.17-2.25,2.14,0,1.21,1.45,2.23,3.17,2.23h23c1.72,0,3.17-1,3.17-2.23a2.43,2.43,0,0,0-2-2.07,1,1,0,0,1-.72-.87c-.2-2.2-2.7-3.91-5.67-3.91a6.91,6.91,0,0,0-3.61,1,1,1,0,0,1-.86.09,1,1,0,0,1-.6-.61A4.06,4.06,0,0,0,248.14,88.44ZM238.23,94h0Z" fill="#dfeaef"></path><path d="M254.71,94.86a1,1,0,0,1-1-.82A3.35,3.35,0,0,0,252.37,92a3.52,3.52,0,0,0-2.92-.09,1,1,0,0,1-1.25-.65,1,1,0,0,1,.66-1.26,4.9,4.9,0,0,1,6.84,3.75,1,1,0,0,1-.82,1.15Z" fill="#dfeaef"></path></g></svg>